<svg xmlns="http://www.w3.org/2000/svg" width="22" height="18"><path id="tw.svg" d="M969.393 5002.33a9.191 9.191 0 01-2.868 1.11 4.469 4.469 0 00-3.293-1.44 4.532 4.532 0 00-4.514 4.54 4.585 4.585 0 00.117 1.04 12.787 12.787 0 01-9.3-4.75 4.577 4.577 0 001.4 6.07 4.562 4.562 0 01-2.044-.57v.05a4.539 4.539 0 003.62 4.46 4.648 4.648 0 01-1.189.16 4.765 4.765 0 01-.85-.08 4.537 4.537 0 004.215 3.16 9.064 9.064 0 01-5.6 1.94 9.559 9.559 0 01-1.077-.06 12.821 12.821 0 0019.759-10.89l-.015-.59a9.15 9.15 0 002.256-2.35 9.029 9.029 0 01-2.591.72 4.6 4.6 0 001.974-2.52z" transform="translate(-948 -5002)" fill-rule="evenodd"/></svg>