<svg xmlns="http://www.w3.org/2000/svg" width="11" height="21" viewBox="0 0 11 21">
  <defs>
    <style>
      .cls-1 {
        fill-rule: evenodd;
      }
    </style>
  </defs>
  <path id="fb.svg" class="cls-1" d="M886.586,4999h-2.639c-2.964,0-4.879,2.03-4.879,5.17v2.38h-2.653a0.421,0.421,0,0,0-.415.43v3.45a0.421,0.421,0,0,0,.415.43h2.652v8.71a0.421,0.421,0,0,0,.415.43h3.461a0.421,0.421,0,0,0,.415-0.43v-8.71h3.1a0.421,0.421,0,0,0,.415-0.43v-3.45a0.434,0.434,0,0,0-.122-0.3,0.412,0.412,0,0,0-.293-0.13h-3.1v-2.02a1.2,1.2,0,0,1,1.45-1.46h1.777a0.428,0.428,0,0,0,.415-0.43v-3.21A0.428,0.428,0,0,0,886.586,4999Z" transform="translate(-876 -4999)"/>
</svg>
