<svg xmlns="http://www.w3.org/2000/svg" width="15.969" height="15.06" viewBox="0 0 15.969 15.06">
  <defs>
    <style>
      .cls-1 {
        fill-rule: evenodd;
      }
    </style>
  </defs>
  <path id="star.svg" class="cls-1" d="M946.292,2557.11l-4.407-.41a0.771,0.771,0,0,1-.631-0.46l-1.578-3.79a0.761,0.761,0,0,0-1.4,0l-1.566,3.79a0.755,0.755,0,0,1-.631.46l-4.407.41a0.751,0.751,0,0,0-.429,1.31l3.321,2.89a0.728,0.728,0,0,1,.24.73l-1,4.05a0.757,0.757,0,0,0,1.124.82l3.674-2.13a0.758,0.758,0,0,1,.77,0l3.675,2.13a0.754,0.754,0,0,0,1.123-.82l-0.984-4.05a0.726,0.726,0,0,1,.24-0.73l3.32-2.89A0.76,0.76,0,0,0,946.292,2557.11Z" transform="translate(-931 -2551.97)"/>
</svg>
