<svg xmlns="http://www.w3.org/2000/svg" width="22" height="18" viewBox="0 0 22 18">
  <defs>
    <style>
      .cls-1 {
        fill-rule: evenodd;
      }
    </style>
  </defs>
  <path id="tw.svg" class="cls-1" d="M969.393,5002.33a9.191,9.191,0,0,1-2.868,1.11,4.469,4.469,0,0,0-3.293-1.44,4.532,4.532,0,0,0-4.514,4.54,4.585,4.585,0,0,0,.117,1.04,12.787,12.787,0,0,1-9.3-4.75,4.577,4.577,0,0,0,1.4,6.07,4.562,4.562,0,0,1-2.044-.57v0.05a4.539,4.539,0,0,0,3.62,4.46,4.648,4.648,0,0,1-1.189.16,4.765,4.765,0,0,1-.85-0.08,4.537,4.537,0,0,0,4.215,3.16,9.064,9.064,0,0,1-5.6,1.94,9.559,9.559,0,0,1-1.077-.06,12.821,12.821,0,0,0,19.759-10.89l-0.015-.59a9.15,9.15,0,0,0,2.256-2.35,9.029,9.029,0,0,1-2.591.72A4.6,4.6,0,0,0,969.393,5002.33Z" transform="translate(-948 -5002)"/>
</svg>
